<?xml version="1.0" encoding="UTF-8" standalone="no"?>
<!-- Created with Inkscape (http://www.inkscape.org/) -->

<svg
   xmlns:i="&amp;ns_ai;"
   xmlns:dc="http://purl.org/dc/elements/1.1/"
   xmlns:cc="http://creativecommons.org/ns#"
   xmlns:rdf="http://www.w3.org/1999/02/22-rdf-syntax-ns#"
   xmlns:svg="http://www.w3.org/2000/svg"
   xmlns="http://www.w3.org/2000/svg"
   xmlns:sodipodi="http://sodipodi.sourceforge.net/DTD/sodipodi-0.dtd"
   xmlns:inkscape="http://www.inkscape.org/namespaces/inkscape"
   width="126.43111mm"
   height="37.112942mm"
   viewBox="0 0 126.43111 37.112942"
   version="1.1"
   id="svg8"
   inkscape:version="0.92.1 r15371"
   sodipodi:docname="logo-vts.svg">
  <defs
     id="defs2">
	
	
</defs>
  <sodipodi:namedview
     id="base"
     pagecolor="#ffffff"
     bordercolor="#666666"
     borderopacity="1.0"
     inkscape:pageopacity="0.0"
     inkscape:pageshadow="2"
     inkscape:zoom="0.98994949"
     inkscape:cx="495.88787"
     inkscape:cy="97.842724"
     inkscape:document-units="mm"
     inkscape:current-layer="g4505"
     showgrid="false"
     fit-margin-top="0"
     fit-margin-left="0"
     fit-margin-right="0"
     fit-margin-bottom="0"
     inkscape:window-width="1366"
     inkscape:window-height="705"
     inkscape:window-x="-8"
     inkscape:window-y="-8"
     inkscape:window-maximized="1" />
  <metadata
     id="metadata5">
    <rdf:RDF>
      <cc:Work
         rdf:about="">
        <dc:format>image/svg+xml</dc:format>
        <dc:type
           rdf:resource="http://purl.org/dc/dcmitype/StillImage" />
        <dc:title></dc:title>
      </cc:Work>
    </rdf:RDF>
  </metadata>
  <g
     inkscape:label="Layer 1"
     inkscape:groupmode="layer"
     id="layer1"
     transform="translate(342.91794,-165.05067)">
    <g
       i:extraneous="self"
       id="g4505"
       transform="matrix(0.26458333,0,0,0.26458333,-342.91794,165.05067)">
		<g
   id="XMLID_2_">
			<g
   id="XMLID_24_">
				<g
   id="XMLID_25_">
					<polygon
   style="fill:#4e7396"
   id="XMLID_27_"
   class="st0"
   points="35.5,61.2 59.6,19.5 11.3,19.5 " />

					<polygon
   style="fill:#ef595d"
   id="XMLID_26_"
   class="st1"
   points="59.6,19.5 70.9,0 0,0 11.3,19.5 " />

				</g>

			</g>

			<g
   id="XMLID_3_">
				<path
   style="fill:#828383"
   inkscape:connector-curvature="0"
   id="XMLID_22_"
   class="st2"
   d="M 53.8,90.9 C 53.5,90.4 53.5,90 53.9,89.7 l 3.4,-3.3 c 0.4,-0.4 0.9,-0.4 1.4,0 1.2,1 2.5,1.5 4,1.5 2,0 3.5,-0.6 4.6,-1.7 1.1,-1.1 1.6,-3.1 1.6,-5.8 v -44 c 0,-0.6 0.3,-0.9 0.9,-0.9 H 75 c 0.6,0 0.9,0.3 0.9,0.9 v 43.4 c 0,5 -1.2,8.7 -3.6,11 -2.4,2.3 -5.6,3.5 -9.6,3.5 -1.8,0 -3.5,-0.3 -5,-0.9 C 56,92.9 54.8,92 53.8,90.9 Z" />

				<path
   style="fill:#828383"
   inkscape:connector-curvature="0"
   id="XMLID_20_"
   class="st2"
   d="m 98.4,94.4 c -4.2,0 -7.5,-1.3 -9.9,-3.8 -2.4,-2.5 -3.7,-6.3 -3.7,-11.3 V 36.4 c 0,-0.6 0.3,-0.9 0.9,-0.9 h 5.2 c 0.6,0 0.9,0.3 0.9,0.9 v 43.8 c 0,2.6 0.6,4.5 1.8,5.8 1.2,1.3 2.8,1.9 4.9,1.9 2,0 3.7,-0.6 4.9,-1.9 1.2,-1.3 1.8,-3.2 1.8,-5.8 V 36.4 c 0,-0.6 0.3,-0.9 0.9,-0.9 h 5.2 c 0.6,0 0.9,0.3 0.9,0.9 v 42.9 c 0,5 -1.2,8.8 -3.7,11.3 -2.6,2.5 -5.9,3.8 -10.1,3.8 z" />

				<path
   style="fill:#828383"
   inkscape:connector-curvature="0"
   id="XMLID_18_"
   class="st2"
   d="m 146.2,77.2 c 0,5.9 -1,10.2 -3.1,13 -2,2.8 -5.5,4.2 -10.4,4.2 -8.7,0 -13.3,-5 -13.6,-14.9 0,-0.6 0.2,-0.9 0.7,-0.9 l 5,-0.9 c 0.6,-0.1 0.9,0.1 0.9,0.8 0.2,3.6 0.8,6.1 2,7.6 1.2,1.5 2.9,2.2 5.1,2.2 2.2,0 3.9,-0.7 4.9,-2 1.1,-1.4 1.6,-4 1.6,-7.9 0,-1.7 -0.1,-3.1 -0.3,-4.3 -0.2,-1.2 -0.5,-2.2 -0.9,-3 -0.5,-0.8 -1.1,-1.5 -1.8,-2.1 -0.8,-0.6 -1.7,-1.1 -2.9,-1.5 l -3.5,-1.4 c -2,-0.7 -3.6,-1.6 -5,-2.5 -1.3,-0.9 -2.3,-2 -3.1,-3.2 -0.8,-1.2 -1.3,-2.7 -1.6,-4.4 -0.3,-1.7 -0.5,-3.6 -0.5,-5.8 0,-10 4.3,-15 13,-15 4.4,0 7.6,1.2 9.7,3.5 2.1,2.3 3.2,5.8 3.5,10.3 0,0.6 -0.3,0.9 -0.8,0.9 l -4.8,0.8 c -0.3,0.1 -0.5,0.1 -0.7,0 -0.2,-0.1 -0.3,-0.4 -0.3,-0.6 -0.1,-2.9 -0.7,-5 -1.7,-6.4 -1,-1.4 -2.6,-2.1 -4.8,-2.1 -2.2,0 -3.8,0.7 -4.8,2 -1,1.3 -1.5,3.5 -1.5,6.4 0,1.5 0.1,2.8 0.3,3.8 0.2,1.1 0.5,1.9 1,2.7 0.5,0.7 1.1,1.4 1.8,1.9 0.8,0.5 1.7,1 2.9,1.5 l 3.5,1.4 c 1.9,0.7 3.5,1.6 4.7,2.5 1.3,0.9 2.3,2 3.1,3.3 0.8,1.3 1.4,2.8 1.7,4.5 0.5,1.2 0.7,3.2 0.7,5.6 z" />

				<path
   style="fill:#828383"
   inkscape:connector-curvature="0"
   id="XMLID_16_"
   class="st2"
   d="m 160.8,93.6 c -0.6,0 -0.9,-0.3 -0.9,-0.9 V 42.5 c 0,-0.3 -0.2,-0.5 -0.5,-0.5 h -9.6 c -0.6,0 -0.9,-0.3 -0.9,-0.9 v -4.7 c 0,-0.6 0.3,-0.9 0.9,-0.9 h 27 c 0.6,0 0.9,0.3 0.9,0.9 v 4.7 c 0,0.6 -0.3,0.9 -0.9,0.9 h -9.6 c -0.3,0 -0.5,0.2 -0.5,0.5 v 50.3 c 0,0.6 -0.3,0.9 -0.9,0.9 h -5 z" />

				<path
   style="fill:#828383"
   inkscape:connector-curvature="0"
   id="XMLID_14_"
   class="st2"
   d="m 183.6,36.4 c 0,-0.6 0.3,-0.9 0.9,-0.9 h 5.2 c 0.6,0 0.9,0.3 0.9,0.9 v 56.3 c 0,0.6 -0.3,0.9 -0.9,0.9 h -5.2 c -0.6,0 -0.9,-0.3 -0.9,-0.9 z" />

				<path
   style="fill:#828383"
   inkscape:connector-curvature="0"
   id="XMLID_12_"
   class="st2"
   d="m 200,85.8 c -0.2,-0.6 -0.3,-1.2 -0.5,-2 -0.1,-0.8 -0.3,-1.9 -0.3,-3.4 -0.1,-1.5 -0.1,-3.5 -0.2,-6 0,-2.5 0,-5.8 0,-9.9 0,-4.1 0,-7.4 0,-9.9 0,-2.5 0.1,-4.5 0.2,-6 0.1,-1.5 0.2,-2.6 0.3,-3.3 0.1,-0.7 0.3,-1.4 0.5,-2 0.9,-2.7 2.4,-4.8 4.4,-6.3 2,-1.5 4.7,-2.2 8,-2.2 3.8,0 6.8,1 9,3.2 2.2,2.1 3.5,5.4 3.9,9.8 0.1,0.6 -0.2,0.9 -0.7,1 l -4.9,0.9 c -0.6,0.1 -0.9,-0.1 -0.9,-0.7 -0.4,-5.2 -2.5,-7.8 -6.4,-7.8 -3,0 -5,1.3 -5.8,4 -0.1,0.4 -0.2,0.9 -0.3,1.5 -0.1,0.6 -0.2,1.5 -0.3,2.8 -0.1,1.3 -0.1,3.1 -0.1,5.5 0,2.4 0,5.5 0,9.5 0,4 0,7.2 0,9.6 0,2.3 0.1,4.2 0.1,5.5 0.1,1.3 0.1,2.2 0.3,2.8 0.1,0.6 0.2,1.1 0.3,1.5 0.9,2.7 2.8,4 5.8,4 3.9,0 6,-2.6 6.4,-7.8 0,-0.6 0.3,-0.8 0.9,-0.7 l 4.9,0.9 c 0.5,0.1 0.7,0.5 0.7,1 -0.4,4.4 -1.7,7.7 -3.9,9.8 -2.2,2.1 -5.2,3.2 -9,3.2 -3.3,0 -6,-0.7 -8,-2.2 -2,-1.4 -3.5,-3.5 -4.4,-6.3 z" />

				<path
   style="fill:#828383"
   inkscape:connector-curvature="0"
   id="XMLID_10_"
   class="st2"
   d="m 232.4,36.4 c 0,-0.6 0.3,-0.9 0.8,-0.9 h 21.9 c 0.6,0 0.9,0.3 0.9,0.9 v 4.7 c 0,0.6 -0.3,0.9 -0.9,0.9 h -15.4 c -0.3,0 -0.5,0.2 -0.5,0.5 v 18.1 c 0,0.3 0.2,0.5 0.5,0.5 H 253 c 0.6,0 0.8,0.3 0.8,0.9 v 4.7 c 0,0.6 -0.3,0.9 -0.8,0.9 h -13.3 c -0.3,0 -0.5,0.2 -0.5,0.5 v 18.7 c 0,0.3 0.2,0.5 0.5,0.5 h 15.4 c 0.6,0 0.9,0.3 0.9,0.9 v 4.7 c 0,0.6 -0.3,0.9 -0.9,0.9 h -21.9 c -0.6,0 -0.8,-0.3 -0.8,-0.9 z" />

				<path
   style="fill:#828383"
   inkscape:connector-curvature="0"
   id="XMLID_8_"
   class="st2"
   d="m 262.9,85.6 c 0,-0.6 0.3,-0.9 0.9,-0.9 h 5.5 c 0.6,0 0.9,0.3 0.9,0.9 v 7.2 c 0,0.6 -0.3,0.9 -0.9,0.9 h -5.5 c -0.6,0 -0.9,-0.3 -0.9,-0.9 z" />

				<path
   style="fill:#828383"
   inkscape:connector-curvature="0"
   id="XMLID_6_"
   class="st2"
   d="m 277.3,85.8 c -0.2,-0.6 -0.3,-1.2 -0.5,-2 -0.1,-0.8 -0.3,-1.9 -0.3,-3.4 -0.1,-1.5 -0.1,-3.5 -0.2,-6 0,-2.5 0,-5.8 0,-9.9 0,-4.1 0,-7.4 0,-9.9 0,-2.5 0.1,-4.5 0.2,-6 0.1,-1.5 0.2,-2.6 0.3,-3.3 0.1,-0.7 0.3,-1.4 0.5,-2 0.9,-2.7 2.4,-4.8 4.4,-6.3 2,-1.5 4.7,-2.2 8,-2.2 3.8,0 6.8,1 9,3.2 2.2,2.1 3.5,5.4 3.9,9.8 0.1,0.6 -0.2,0.9 -0.7,1 l -4.9,0.9 c -0.6,0.1 -0.9,-0.1 -0.9,-0.7 -0.4,-5.2 -2.5,-7.8 -6.4,-7.8 -3,0 -5,1.3 -5.8,4 -0.1,0.4 -0.2,0.9 -0.3,1.5 -0.1,0.6 -0.2,1.5 -0.3,2.8 -0.1,1.3 -0.1,3.1 -0.1,5.5 0,2.4 0,5.5 0,9.5 0,4 0,7.2 0,9.6 0,2.3 0.1,4.2 0.1,5.5 0.1,1.3 0.1,2.2 0.3,2.8 0.1,0.6 0.2,1.1 0.3,1.5 0.9,2.7 2.8,4 5.8,4 3.9,0 6,-2.6 6.4,-7.8 0,-0.6 0.3,-0.8 0.9,-0.7 l 4.9,0.9 c 0.5,0.1 0.7,0.5 0.7,1 -0.4,4.4 -1.7,7.7 -3.9,9.8 -2.2,2.1 -5.2,3.2 -9,3.2 -3.3,0 -6,-0.7 -8,-2.2 -2,-1.4 -3.5,-3.5 -4.4,-6.3 z" />

				<path
   style="fill:#828383"
   inkscape:connector-curvature="0"
   id="XMLID_4_"
   class="st2"
   d="m 308.4,93.6 c -0.6,0 -0.9,-0.3 -0.9,-0.9 v -4.4 c 0,-0.3 0.1,-0.7 0.2,-1 L 325.3,42.2 V 42 h -16 c -0.6,0 -0.9,-0.3 -0.9,-0.9 v -4.7 c 0,-0.6 0.3,-0.9 0.9,-0.9 h 22.4 c 0.6,0 0.9,0.3 0.9,0.9 V 41 c 0,0.3 -0.1,0.7 -0.2,1 l -17.6,45 v 0.2 h 16.9 c 0.6,0 0.9,0.3 0.9,0.9 v 4.7 c 0,0.6 -0.3,0.9 -0.9,0.9 h -23.3 z" />

			</g>

		</g>

		<rect
   style="fill:none"
   id="XMLID_1_"
   x="53.5"
   y="108.5"
   class="st3"
   width="266.5"
   height="25.700001" />

		<g
   aria-label="výnosy trestních sankcí"
   transform="translate(53.5491,133.0272)"
   style="font-size:36px;font-family:DINNextLTPro-Condensed;fill:#aeadad"
   id="XMLID_28_">
  <path
     d="M 20.232422,-19.634766 12.287109,0 H 8.9648438 L 1.0722656,-19.634766 h 3.5859375 l 6.0820309,15.6269535 6.029297,-15.6269535 z"
     style="font-size:36px;font-family:DINNextLTPro-Condensed;fill:#aeadad"
     id="path4556" />
  <path
     d="M 41.537109,-19.634766 30.076172,7.2421875 h -3.533203 l 3.65625,-8.19140625 -7.822266,-18.68554725 h 3.585938 l 6.029296,14.5546879 6.082032,-14.5546879 z m -3.919922,-9.826171 -4.798828,6.574218 h -2.61914 l 3.146484,-6.574218 z"
     style="font-size:36px;font-family:DINNextLTPro-Condensed;fill:#aeadad"
     id="path4558" />
  <path
     d="m 62.279297,0 h -3.304688 v -11.179688 q 0,-1.353515 -0.158203,-2.53125 -0.158203,-1.195312 -0.580078,-1.863281 -0.439453,-0.738281 -1.265625,-1.089843 -0.826172,-0.369141 -2.144531,-0.369141 -1.353516,0 -2.830078,0.667969 -1.476563,0.667968 -2.830078,1.705078 V 0 h -3.304688 v -19.634766 h 3.304688 v 2.179688 q 1.546875,-1.283203 3.199218,-2.003906 1.652344,-0.720703 3.392578,-0.720703 3.181641,0 4.851563,1.916015 1.669922,1.916016 1.669922,5.519531 z"
     style="font-size:36px;font-family:DINNextLTPro-Condensed;fill:#aeadad"
     id="path4560" />
  <path
     d="m 85.376953,-9.8085938 q 0,4.7988282 -2.460937,7.5761719 -2.460938,2.77734377 -6.591797,2.77734377 -4.166016,0 -6.626953,-2.77734377 -2.44336,-2.7773437 -2.44336,-7.5761719 0,-4.7988282 2.44336,-7.5761722 2.460937,-2.794921 6.626953,-2.794921 4.130859,0 6.591797,2.794921 2.460937,2.777344 2.460937,7.5761722 z m -3.410156,0 q 0,-3.8144532 -1.494141,-5.6601562 -1.49414,-1.863281 -4.148437,-1.863281 -2.689453,0 -4.183594,1.863281 -1.476563,1.845703 -1.476563,5.6601562 0,3.6914063 1.494141,5.6074219 1.494141,1.8984375 4.166016,1.8984375 2.636718,0 4.130859,-1.8808593 1.511719,-1.8984375 1.511719,-5.6250001 z"
     style="font-size:36px;font-family:DINNextLTPro-Condensed;fill:#aeadad"
     id="path4562" />
  <path
     d="m 104.53711,-5.6601562 q 0,2.6894531 -2.23242,4.4121093 -2.21485,1.72265628 -6.064456,1.72265628 -2.179687,0 -4.007812,-0.50976563 Q 90.421875,-0.5625 89.191406,-1.1777344 v -3.7089843 h 0.175781 q 1.564454,1.1777343 3.480469,1.8808593 1.916016,0.6855469 3.673828,0.6855469 2.179688,0 3.410157,-0.703125 1.230469,-0.703125 1.230469,-2.2148437 0,-1.1601563 -0.66797,-1.7578125 -0.667968,-0.5976563 -2.566406,-1.0195313 -0.703125,-0.1582031 -1.845703,-0.3691406 -1.125,-0.2109375 -2.05664,-0.4570313 -2.583985,-0.6855469 -3.673829,-2.0039061 -1.072265,-1.335938 -1.072265,-3.269531 0,-1.212891 0.492187,-2.285157 0.509766,-1.072265 1.529297,-1.916015 0.984375,-0.826172 2.496094,-1.300781 1.529297,-0.492188 3.410156,-0.492188 1.757813,0 3.550779,0.439453 1.81055,0.421875 3.00586,1.03711 v 3.533203 h -0.17578 q -1.26562,-0.931641 -3.07617,-1.564453 -1.810548,-0.650391 -3.550783,-0.650391 -1.810546,0 -3.058593,0.703125 -1.248047,0.685547 -1.248047,2.05664 0,1.212891 0.755859,1.828125 0.738281,0.615235 2.390625,1.001954 0.914063,0.210937 2.039063,0.421875 1.142578,0.210937 1.898437,0.386718 2.302739,0.527344 3.550779,1.8105472 1.24805,1.3007813 1.24805,3.4453126 z"
     style="font-size:36px;font-family:DINNextLTPro-Condensed;fill:#aeadad"
     id="path4564" />
  <path
     d="M 126.26367,-19.634766 114.80273,7.2421875 h -3.5332 l 3.65625,-8.19140625 -7.82226,-18.68554725 h 3.58593 l 6.0293,14.5546879 6.08203,-14.5546879 z"
     style="font-size:36px;font-family:DINNextLTPro-Condensed;fill:#aeadad"
     id="path4566" />
  <path
     d="m 153.43945,-0.17578125 q -0.93164,0.24609375 -2.03906,0.40429688 -1.08984,0.15820312 -1.95117,0.15820312 -3.00586,0 -4.57031,-1.61718745 -1.56446,-1.6171876 -1.56446,-5.1855469 V -16.857422 h -2.23242 v -2.777344 h 2.23242 v -5.642578 h 3.30469 v 5.642578 h 6.82031 v 2.777344 h -6.82031 v 8.9472658 q 0,1.546875 0.0703,2.4257812 0.0703,0.8613281 0.49219,1.6171875 0.38672,0.703125 1.05469,1.0371094 0.68554,0.3164062 2.07422,0.3164062 0.80859,0 1.6875,-0.2285156 0.8789,-0.2460938 1.26562,-0.4042969 h 0.17578 z"
     style="font-size:36px;font-family:DINNextLTPro-Condensed;fill:#aeadad"
     id="path4568" />
  <path
     d="m 169.69922,-16.03125 h -0.17578 q -0.73828,-0.175781 -1.44141,-0.246094 -0.68555,-0.08789 -1.63476,-0.08789 -1.5293,0 -2.95313,0.685546 -1.42383,0.667969 -2.74219,1.740235 V 0 h -3.30468 v -19.634766 h 3.30468 v 2.900391 q 1.96875,-1.582031 3.46289,-2.232422 1.51172,-0.667969 3.07618,-0.667969 0.86132,0 1.24804,0.05273 0.38672,0.03516 1.16016,0.158203 z"
     style="font-size:36px;font-family:DINNextLTPro-Condensed;fill:#aeadad"
     id="path4570" />
  <path
     d="m 189.28125,-9.4746094 h -14.4668 q 0,1.8105469 0.54492,3.1640625 0.54493,1.3359375 1.49415,2.1972657 0.91406,0.8437499 2.1621,1.2656249 1.26563,0.421875 2.77735,0.421875 2.0039,0 4.02539,-0.7910156 2.03906,-0.8085937 2.90039,-1.5820312 h 0.17578 v 3.6035156 q -1.66992,0.703125 -3.41016,1.17773437 -1.74023,0.47460938 -3.65625,0.47460938 -4.88671,0 -7.6289,-2.63671875 -2.74219,-2.6542969 -2.74219,-7.5234375 0,-4.816406 2.61914,-7.646484 2.63672,-2.830078 6.92578,-2.830078 3.97266,0 6.11719,2.320312 2.16211,2.320312 2.16211,6.591797 z m -3.2168,-2.5312496 q -0.0176,-2.601563 -1.31836,-4.025391 -1.2832,-1.423828 -3.91992,-1.423828 -2.6543,0 -4.23633,1.564453 -1.56445,1.564453 -1.77539,3.884766 z"
     style="font-size:36px;font-family:DINNextLTPro-Condensed;fill:#aeadad"
     id="path4572" />
  <path
     d="m 208.31836,-5.6601562 q 0,2.6894531 -2.23242,4.4121093 -2.21485,1.72265628 -6.06446,1.72265628 -2.17968,0 -4.00781,-0.50976563 Q 194.20312,-0.5625 192.97266,-1.1777344 v -3.7089843 h 0.17578 q 1.56445,1.1777343 3.48047,1.8808593 1.91601,0.6855469 3.67382,0.6855469 2.17969,0 3.41016,-0.703125 1.23047,-0.703125 1.23047,-2.2148437 0,-1.1601563 -0.66797,-1.7578125 -0.66797,-0.5976563 -2.56641,-1.0195313 -0.70312,-0.1582031 -1.8457,-0.3691406 -1.125,-0.2109375 -2.05664,-0.4570313 -2.58398,-0.6855469 -3.67383,-2.0039061 -1.07226,-1.335938 -1.07226,-3.269531 0,-1.212891 0.49218,-2.285157 0.50977,-1.072265 1.5293,-1.916015 0.98438,-0.826172 2.49609,-1.300781 1.5293,-0.492188 3.41016,-0.492188 1.75781,0 3.55078,0.439453 1.81055,0.421875 3.00586,1.03711 v 3.533203 h -0.17578 q -1.26562,-0.931641 -3.07617,-1.564453 -1.81055,-0.650391 -3.55078,-0.650391 -1.81055,0 -3.0586,0.703125 -1.24804,0.685547 -1.24804,2.05664 0,1.212891 0.75586,1.828125 0.73828,0.615235 2.39062,1.001954 0.91406,0.210937 2.03906,0.421875 1.14258,0.210937 1.89844,0.386718 2.30274,0.527344 3.55078,1.8105472 1.24805,1.3007813 1.24805,3.4453126 z"
     style="font-size:36px;font-family:DINNextLTPro-Condensed;fill:#aeadad"
     id="path4574" />
  <path
     d="m 223.25977,-0.17578125 q -0.93165,0.24609375 -2.03907,0.40429688 -1.08984,0.15820312 -1.95117,0.15820312 -3.00586,0 -4.57031,-1.61718745 -1.56445,-1.6171876 -1.56445,-5.1855469 V -16.857422 h -2.23243 v -2.777344 h 2.23243 v -5.642578 h 3.30468 v 5.642578 h 6.82032 v 2.777344 h -6.82032 v 8.9472658 q 0,1.546875 0.0703,2.4257812 0.0703,0.8613281 0.49218,1.6171875 0.38672,0.703125 1.05469,1.0371094 0.68555,0.3164062 2.07422,0.3164062 0.80859,0 1.6875,-0.2285156 0.87891,-0.2460938 1.26562,-0.4042969 h 0.17579 z"
     style="font-size:36px;font-family:DINNextLTPro-Condensed;fill:#aeadad"
     id="path4576" />
  <path
     d="m 243.68555,0 h -3.30469 v -11.179688 q 0,-1.353515 -0.1582,-2.53125 -0.15821,-1.195312 -0.58008,-1.863281 -0.43946,-0.738281 -1.26563,-1.089843 -0.82617,-0.369141 -2.14453,-0.369141 -1.35351,0 -2.83008,0.667969 -1.47656,0.667968 -2.83007,1.705078 V 0 h -3.30469 v -19.634766 h 3.30469 v 2.179688 q 1.54687,-1.283203 3.19921,-2.003906 1.65235,-0.720703 3.39258,-0.720703 3.18164,0 4.85156,1.916015 1.66993,1.916016 1.66993,5.519531 z"
     style="font-size:36px;font-family:DINNextLTPro-Condensed;fill:#aeadad"
     id="path4578" />
  <path
     d="m 253.38867,0 h -3.30469 v -19.634766 h 3.30469 z m 3.63867,-29.460937 -4.79882,6.574218 h -2.61915 l 3.14649,-6.574218 z"
     style="font-size:36px;font-family:DINNextLTPro-Condensed;fill:#aeadad"
     id="path4580" />
  <path
     d="M 274.3418,-1.2304687 Q 272.68945,-0.43945313 271.19531,0 q -1.47656,0.43945313 -3.14648,0.43945313 -2.12696,0 -3.90235,-0.61523438 -1.77539,-0.6328125 -3.04101,-1.89843755 -1.2832,-1.265625 -1.98633,-3.1992187 -0.70312,-1.9335937 -0.70312,-4.5175781 0,-4.8164064 2.63671,-7.5585934 2.6543,-2.742188 6.9961,-2.742188 1.6875,0 3.30469,0.47461 1.63476,0.474609 2.98828,1.160156 v 3.673828 h -0.17578 q -1.51172,-1.177735 -3.12891,-1.810547 -1.59961,-0.632812 -3.12891,-0.632812 -2.8125,0 -4.44726,1.898437 -1.61719,1.880859 -1.61719,5.5371094 0,3.5507812 1.58203,5.4667969 1.59961,1.8984374 4.48242,1.8984374 1.00196,0 2.03907,-0.2636718 1.0371,-0.2636719 1.86328,-0.6855469 0.7207,-0.3691406 1.35351,-0.7734375 0.63281,-0.421875 1.00196,-0.7207031 h 0.17578 z"
     style="font-size:36px;font-family:DINNextLTPro-Condensed;fill:#aeadad"
     id="path4582" />
  <path
     d="m 295.01367,0 h -3.30469 v -11.179688 q 0,-1.353515 -0.1582,-2.53125 -0.1582,-1.195312 -0.58008,-1.863281 -0.43945,-0.738281 -1.26562,-1.089843 -0.82617,-0.369141 -2.14453,-0.369141 -1.35352,0 -2.83008,0.667969 -1.47656,0.667968 -2.83008,1.705078 V 0 h -3.30469 v -27.351562 h 3.30469 v 9.896484 q 1.54688,-1.283203 3.19922,-2.003906 1.65234,-0.720703 3.39258,-0.720703 3.18164,0 4.85156,1.916015 1.66992,1.916016 1.66992,5.519531 z"
     style="font-size:36px;font-family:DINNextLTPro-Condensed;fill:#aeadad"
     id="path4584" />
  <path
     d="m 328.06055,-5.6601562 q 0,2.6894531 -2.23243,4.4121093 -2.21484,1.72265628 -6.06445,1.72265628 -2.17969,0 -4.00781,-0.50976563 Q 313.94531,-0.5625 312.71484,-1.1777344 v -3.7089843 h 0.17578 q 1.56446,1.1777343 3.48047,1.8808593 1.91602,0.6855469 3.67383,0.6855469 2.17969,0 3.41016,-0.703125 1.23047,-0.703125 1.23047,-2.2148437 0,-1.1601563 -0.66797,-1.7578125 -0.66797,-0.5976563 -2.56641,-1.0195313 -0.70312,-0.1582031 -1.8457,-0.3691406 -1.125,-0.2109375 -2.05664,-0.4570313 -2.58399,-0.6855469 -3.67383,-2.0039061 -1.07227,-1.335938 -1.07227,-3.269531 0,-1.212891 0.49219,-2.285157 0.50977,-1.072265 1.5293,-1.916015 0.98437,-0.826172 2.49609,-1.300781 1.5293,-0.492188 3.41016,-0.492188 1.75781,0 3.55078,0.439453 1.81055,0.421875 3.00586,1.03711 v 3.533203 h -0.17578 q -1.26563,-0.931641 -3.07617,-1.564453 -1.81055,-0.650391 -3.55079,-0.650391 -1.81054,0 -3.05859,0.703125 -1.24805,0.685547 -1.24805,2.05664 0,1.212891 0.75586,1.828125 0.73828,0.615235 2.39063,1.001954 0.91406,0.210937 2.03906,0.421875 1.14258,0.210937 1.89844,0.386718 2.30273,0.527344 3.55078,1.8105472 1.24805,1.3007813 1.24805,3.4453126 z"
     style="font-size:36px;font-family:DINNextLTPro-Condensed;fill:#aeadad"
     id="path4586" />
  <path
     d="m 348.06445,0 h -3.28711 v -2.0917969 q -0.43945,0.2988282 -1.19531,0.84375 -0.73828,0.52734378 -1.44141,0.84375002 Q 341.31445,0 340.24219,0.26367188 q -1.07227,0.28124999 -2.51367,0.28124999 -2.6543,0 -4.5,-1.75781247 -1.84571,-1.7578125 -1.84571,-4.4824219 0,-2.2324219 0.94922,-3.6035156 0.9668,-1.3886719 2.74219,-2.1796879 1.79297,-0.791015 4.30664,-1.072265 2.51367,-0.28125 5.39648,-0.421875 v -0.509766 q 0,-1.125 -0.40429,-1.863281 -0.38672,-0.738281 -1.125,-1.160156 -0.70313,-0.404297 -1.6875,-0.544922 -0.98438,-0.140625 -2.05664,-0.140625 -1.30079,0 -2.90039,0.351562 -1.59961,0.333985 -3.30469,0.984375 h -0.17578 v -3.357422 q 0.96679,-0.263671 2.79492,-0.580078 1.82812,-0.316406 3.60351,-0.316406 2.07422,0 3.60352,0.351563 1.54687,0.333984 2.67187,1.160156 1.10743,0.808594 1.6875,2.091797 0.58008,1.283203 0.58008,3.18164 z m -3.28711,-4.8339844 v -5.4667966 q -1.51172,0.08789 -3.56836,0.263672 -2.03906,0.1757809 -3.23437,0.5097652 -1.42383,0.4042969 -2.30274,1.265625 -0.8789,0.8437501 -0.8789,2.3378907 0,1.6875 1.01953,2.5488281 1.01953,0.84375 3.11133,0.84375 1.74023,0 3.18164,-0.6679688 1.4414,-0.6855468 2.67187,-1.6347656 z"
     style="font-size:36px;font-family:DINNextLTPro-Condensed;fill:#aeadad"
     id="path4588" />
  <path
     d="m 370.88086,0 h -3.30469 v -11.179688 q 0,-1.353515 -0.1582,-2.53125 -0.1582,-1.195312 -0.58008,-1.863281 -0.43945,-0.738281 -1.26562,-1.089843 -0.82618,-0.369141 -2.14454,-0.369141 -1.35351,0 -2.83007,0.667969 -1.47657,0.667968 -2.83008,1.705078 V 0 h -3.30469 v -19.634766 h 3.30469 v 2.179688 q 1.54687,-1.283203 3.19922,-2.003906 1.65234,-0.720703 3.39257,-0.720703 3.18165,0 4.85157,1.916015 1.66992,1.916016 1.66992,5.519531 z"
     style="font-size:36px;font-family:DINNextLTPro-Condensed;fill:#aeadad"
     id="path4590" />
  <path
     d="m 395.06836,0 h -4.35938 l -7.875,-8.5957031 -2.14453,2.0390625 V 0 h -3.30468 v -27.351562 h 3.30468 v 17.5429682 l 9.54492,-9.8261722 h 4.16602 l -9.12305,9.070313 z"
     style="font-size:36px;font-family:DINNextLTPro-Condensed;fill:#aeadad"
     id="path4592" />
  <path
     d="M 413.06836,-1.2304687 Q 411.41602,-0.43945313 409.92187,0 q -1.47656,0.43945313 -3.14648,0.43945313 -2.12695,0 -3.90234,-0.61523438 -1.77539,-0.6328125 -3.04102,-1.89843755 -1.2832,-1.265625 -1.98633,-3.1992187 -0.70312,-1.9335937 -0.70312,-4.5175781 0,-4.8164064 2.63672,-7.5585934 2.65429,-2.742188 6.99609,-2.742188 1.6875,0 3.30469,0.47461 1.63476,0.474609 2.98828,1.160156 v 3.673828 h -0.17578 q -1.51172,-1.177735 -3.12891,-1.810547 -1.59961,-0.632812 -3.1289,-0.632812 -2.8125,0 -4.44727,1.898437 -1.61719,1.880859 -1.61719,5.5371094 0,3.5507812 1.58203,5.4667969 1.59961,1.8984374 4.48243,1.8984374 1.00195,0 2.03906,-0.2636718 1.03711,-0.2636719 1.86328,-0.6855469 0.7207,-0.3691406 1.35351,-0.7734375 0.63282,-0.421875 1.00196,-0.7207031 h 0.17578 z"
     style="font-size:36px;font-family:DINNextLTPro-Condensed;fill:#aeadad"
     id="path4594" />
  <path
     d="m 420.66211,0 h -3.30469 v -19.634766 h 3.30469 z m 3.63867,-29.460937 -4.79883,6.574218 h -2.61914 l 3.14649,-6.574218 z"
     style="font-size:36px;font-family:DINNextLTPro-Condensed;fill:#aeadad"
     id="path4596" />
</g>

	</g>
  </g>
  <style
     id="style4485"
     type="text/css">
	.st0{fill:#4E7396;}
	.st1{fill:#EF595D;}
	.st2{fill:#828383;}
	.st3{fill:none;}
	.st4{fill:#AEADAD;}
	.st5{font-family:'DINNextLTPro-Condensed';}
	.st6{font-size:36px;}
</style>
</svg>
